<svg width="24" height="25" viewBox="0 0 24 25" fill="none" xmlns="http://www.w3.org/2000/svg">
<path fill-rule="evenodd" clip-rule="evenodd" d="M3.60001 12.5002C3.60001 12.0031 4.00295 11.6002 4.50001 11.6002L17.2655 11.6002L12.2762 6.84894C11.9179 6.50443 11.9067 5.93469 12.2513 5.5764C12.5958 5.2181 13.1655 5.20693 13.5238 5.55144L20.1238 11.8514C20.3003 12.0211 20.4 12.2554 20.4 12.5002C20.4 12.745 20.3003 12.9793 20.1238 13.1489L13.5238 19.4489C13.1655 19.7935 12.5958 19.7823 12.2513 19.424C11.9067 19.0657 11.9179 18.496 12.2762 18.1514L17.2655 13.4002L4.50001 13.4002C4.00295 13.4002 3.60001 12.9973 3.60001 12.5002Z" fill="currentColor"/>
</svg>
