<svg xmlns="http://www.w3.org/2000/svg" xmlns:xlink="http://www.w3.org/1999/xlink" width="800" zoomAndPan="magnify" viewBox="0 0 600 599.999999" height="800" preserveAspectRatio="xMidYMid meet" version="1.2"><defs><clipPath id="db8f0f9a03"><path d="M 71.308594 94.75 L 528.808594 94.75 L 528.808594 505 L 71.308594 505 Z M 71.308594 94.75 "/></clipPath><clipPath id="f320e70a8c"><path d="M 11.308594 14.441406 L 71.308594 14.441406 L 71.308594 74.441406 L 11.308594 74.441406 Z M 11.308594 14.441406 "/></clipPath><clipPath id="d4da949345"><path d="M 41.308594 14.441406 C 24.742188 14.441406 11.308594 27.875 11.308594 44.441406 C 11.308594 61.011719 24.742188 74.441406 41.308594 74.441406 C 57.878906 74.441406 71.308594 61.011719 71.308594 44.441406 C 71.308594 27.875 57.878906 14.441406 41.308594 14.441406 Z M 41.308594 14.441406 "/></clipPath></defs><g id="9f19bd13a8"><rect x="0" width="600" y="0" height="599.999999" style="fill:#ffffff;fill-opacity:1;stroke:none;"/><rect x="0" width="600" y="0" height="599.999999" style="fill:#ffffff;fill-opacity:1;stroke:none;"/><g clip-rule="nonzero" clip-path="url(#db8f0f9a03)"><path style=" stroke:none;fill-rule:evenodd;fill:#1c1364;fill-opacity:1;" d="M 145.539062 504.964844 C 126.984375 504.964844 110.054688 497.074219 94.523438 480.839844 C 78.984375 464.84375 71.332031 450.007812 71.332031 436.550781 C 71.332031 422.839844 74.074219 413.363281 79.914062 407.566406 C 85.9375 401.542969 92.714844 398.753906 100.089844 398.753906 C 107.742188 398.753906 114.460938 400.144531 120.027344 403.160156 C 129.769531 397.363281 139.039062 391.332031 147.625 385.078125 C 157.597656 377.886719 166.171875 371.15625 173.59375 364.667969 C 171.652344 361.742188 170.027344 358.648438 168.71875 355.390625 C 167.632812 352.875 167.023438 350.246094 166.890625 347.507812 C 166.902344 345.09375 167.136719 342.699219 167.585938 340.324219 C 167.8125 338.449219 168.351562 336.671875 169.207031 334.984375 C 140.683594 327.335938 117.730469 310.632812 99.871094 285.625 C 82.226562 260.320312 73.417969 233.695312 73.417969 205.128906 C 73.417969 176.5625 83.390625 157.128906 103.582031 146.691406 C 123.507812 136.03125 156.664062 130.921875 203.046875 130.921875 C 269.828125 130.921875 313.421875 135.714844 333.828125 145.300781 C 354.464844 155.082031 364.667969 168.023438 364.667969 184.03125 L 387.859375 162.925781 C 387.859375 154.808594 389.484375 149.011719 392.492188 145.070312 C 395.511719 141.359375 398.992188 139.277344 403.160156 139.277344 C 407.472656 139.296875 411.648438 140.070312 415.683594 141.589844 L 426.351562 133.015625 C 424.523438 131.625 423.609375 129.53125 423.609375 126.515625 C 423.585938 125.152344 423.8125 123.832031 424.285156 122.550781 C 424.757812 121.273438 425.449219 120.121094 426.351562 119.101562 C 428.179688 117.007812 430.996094 115.847656 434.699219 115.847656 C 438.648438 115.847656 440.730469 117.007812 441.195312 119.332031 C 441.195312 118.019531 441.480469 116.777344 442.050781 115.59375 C 442.621094 114.414062 443.417969 113.417969 444.441406 112.601562 C 445.617188 111.632812 446.921875 110.890625 448.351562 110.371094 C 449.785156 109.855469 451.265625 109.597656 452.789062 109.59375 L 456.03125 109.59375 C 461.601562 100.078125 467.859375 95.214844 475.046875 94.75 C 473.902344 99.398438 471.816406 103.570312 468.785156 107.273438 C 466.042969 110.984375 463.226562 112.839844 460.4375 113.535156 C 460.5 115.515625 460.210938 117.445312 459.574219 119.320312 C 458.933594 121.195312 457.984375 122.898438 456.726562 124.429688 C 454.175781 127.171875 451.167969 128.835938 447.457031 128.835938 C 450.199219 130 451.398438 132.546875 451.398438 136.488281 C 451.398438 140.199219 450.484375 142.988281 448.382812 145.070312 C 447.40625 145.972656 446.296875 146.660156 445.054688 147.132812 C 443.8125 147.609375 442.527344 147.835938 441.195312 147.8125 C 439.0625 147.257812 436.976562 146.5625 434.933594 145.730469 L 424.03125 156.433594 C 427.046875 158.984375 428.4375 163.160156 428.4375 168.957031 L 428.4375 173.363281 C 435.164062 179.160156 444.203125 181.9375 455.574219 181.9375 C 461.269531 181.960938 466.867188 181.242188 472.371094 179.789062 C 477.875 178.335938 483.097656 176.195312 488.035156 173.363281 L 500.789062 198.867188 C 493.136719 204.433594 488.035156 207.210938 485.714844 207.449219 C 497.769531 208.363281 507.980469 215.328125 516.097656 228.089844 C 524.214844 240.851562 528.382812 265.6875 528.382812 302.753906 C 528.382812 339.820312 511.226562 378.578125 477.140625 418.929688 C 443.050781 459.277344 405.949219 479.453125 366.066406 479.453125 C 326.414062 479.453125 293.25 473.425781 266.8125 461.371094 C 240.613281 449.304688 219.972656 432.839844 205.367188 411.503906 C 193.789062 421.257812 181.726562 435.402344 169.1875 453.949219 C 171.210938 457.351562 172.753906 460.960938 173.816406 464.773438 C 174.878906 468.589844 175.421875 472.476562 175.449219 476.433594 C 175.449219 484.09375 172.433594 490.585938 166.636719 496.378906 C 161.070312 502.175781 153.839844 504.964844 145.539062 504.964844 Z M 152.027344 462.523438 C 152.929688 461.492188 153.933594 460.578125 155.046875 459.78125 C 156.433594 459.085938 157.128906 458.390625 157.128906 457.953125 C 151.234375 447.675781 144.046875 438.402344 135.566406 430.125 C 127.449219 421.945312 117.953125 415.21875 107.503906 409.203125 C 106.351562 409.203125 103.5625 410.820312 98.929688 413.609375 C 109.40625 419.609375 119.070312 426.71875 127.914062 434.933594 C 136.949219 443.261719 144.984375 452.457031 152.027344 462.523438 Z M 162.742188 441.195312 L 171.324219 432.839844 C 165.757812 421.480469 155.785156 411.503906 141.40625 403.160156 L 133.0625 411.503906 C 147.394531 420.089844 157.359375 429.832031 162.742188 441.195312 Z M 177.578125 420.089844 L 181.753906 415.683594 C 178.84375 410.277344 175.214844 405.402344 170.875 401.0625 C 166.53125 396.71875 161.660156 393.09375 156.253906 390.179688 L 152.027344 394.578125 C 154.753906 395.972656 157.351562 397.574219 159.824219 399.375 C 162.300781 401.179688 164.617188 403.160156 166.78125 405.328125 C 168.945312 407.492188 170.929688 409.808594 172.734375 412.285156 C 174.535156 414.757812 176.136719 417.355469 177.53125 420.082031 Z M 188.246094 411.503906 L 192.421875 407.335938 C 188.246094 400.382812 184.542969 394.8125 180.59375 390.636719 C 176.644531 386.460938 172.945312 383.453125 169.234375 381.597656 L 162.742188 386.003906 C 165.988281 387.628906 169.699219 390.636719 174.105469 395.042969 C 179.117188 400.269531 183.832031 405.753906 188.246094 411.496094 Z M 196.828125 397.136719 L 392.265625 188.199219 C 395.511719 184.488281 397.367188 181.015625 397.367188 178.226562 C 397.367188 175.21875 396.453125 173.125 395.042969 172.429688 C 393.65625 171.515625 391.570312 171.269531 389.019531 171.269531 C 386.46875 171.269531 384.84375 172.667969 383.679688 175.914062 L 178.921875 377.65625 C 184.25 379.273438 190.285156 385.773438 196.773438 397.136719 Z M 245.523438 356.09375 C 322.308594 356.09375 385.847656 345.65625 436.140625 324.785156 C 486.222656 303.914062 511.265625 280.878906 511.273438 255.679688 C 511.273438 230.640625 492.714844 218.117188 455.382812 218.117188 C 418.050781 218.117188 385.820312 222.980469 358.222656 232.742188 L 345.699219 247.816406 C 376.3125 233.667969 402.511719 226.710938 424.542969 226.710938 C 446.570312 226.710938 462.804688 227.625 472.988281 229.261719 C 483.191406 231.089844 490.148438 233.667969 494.324219 237.148438 C 494.324219 238.539062 492.699219 238.976562 489.917969 238.976562 C 486.902344 238.976562 484.816406 239.671875 483.65625 241.289062 C 478.183594 238.53125 472.464844 236.445312 466.5 235.039062 C 460 233.640625 449.132812 232.714844 433.800781 232.714844 C 418.472656 232.714844 407.59375 235.734375 400.894531 241.289062 C 409.238281 241.289062 416.195312 242.917969 421.992188 246.398438 C 427.785156 249.644531 430.574219 256.363281 430.574219 266.804688 C 430.574219 277.003906 418.050781 287.441406 393.003906 298.109375 C 368.195312 308.542969 336.660156 313.878906 298.625 313.878906 L 281.660156 313.878906 L 258.46875 339.15625 C 326.414062 339.15625 381.597656 330.808594 423.335938 314.335938 C 465.3125 297.882812 491.128906 276.394531 500.789062 249.875 L 502.878906 256.363281 C 502.878906 270.277344 491.28125 284.425781 468.554688 299.035156 C 446.527344 312.945312 418.472656 324.546875 383.917969 333.816406 C 350.449219 342.980469 316.363281 347.621094 281.660156 347.730469 L 251.976562 347.730469 Z M 370.929688 220.203125 C 379.742188 216.023438 391.105469 212.78125 405.253906 210.695312 C 421.40625 208.414062 437.636719 207.332031 453.949219 207.449219 C 439.796875 204.664062 427.742188 196.089844 417.777344 181.9375 L 404.980469 181.9375 Z M 458.125 198.867188 C 471.34375 198.867188 479.691406 198.171875 483.628906 196.78125 L 479.453125 186.160156 C 475.511719 189.175781 467.859375 190.566406 456.03125 190.566406 C 444.441406 190.566406 435.859375 188.484375 430.527344 184.078125 C 431.945312 186.402344 433.636719 188.507812 435.601562 190.394531 C 437.566406 192.277344 439.738281 193.882812 442.121094 195.203125 C 444.59375 196.46875 447.1875 197.414062 449.894531 198.042969 C 452.601562 198.667969 455.347656 198.960938 458.125 198.914062 Z M 409.421875 171.269531 L 415.683594 167.101562 C 411.972656 159.449219 407.804688 155.273438 402.933594 154.304688 L 398.753906 160.566406 C 401.304688 161.964844 404.789062 165.4375 409.421875 171.234375 Z M 232.726562 207.449219 C 265.890625 207.449219 293.714844 204.664062 316.203125 198.636719 C 338.46875 192.84375 349.832031 185.183594 349.832031 175.21875 C 349.832031 165.476562 340.085938 156.9375 320.378906 149.945312 C 300.898438 142.988281 277.480469 139.277344 249.882812 139.277344 C 189.554688 139.277344 149.011719 142.019531 128.144531 147.382812 C 107.273438 152.496094 96.835938 160.375 96.835938 170.8125 C 96.835938 181.015625 109.824219 189.828125 136.03125 197.011719 C 162 203.964844 194.230469 207.445312 232.726562 207.449219 Z M 226.464844 194.652344 C 208.613281 194.652344 193.542969 192.796875 181.242188 189.085938 C 168.71875 185.648438 162.742188 181.015625 162.742188 175.191406 C 162.742188 169.621094 169.003906 164.746094 181.527344 160.566406 C 194.050781 156.386719 208.890625 154.300781 226.042969 154.3125 C 243.414062 154.3125 258.039062 156.140625 270.105469 159.871094 C 282.171875 163.601562 288.195312 168.226562 288.195312 173.785156 C 288.195312 179.339844 282.160156 184.222656 269.910156 188.410156 C 257.855469 192.578125 243.476562 194.671875 226.546875 194.671875 Z M 188.199219 354 C 194.703125 350.289062 207.457031 338.925781 226.464844 319.914062 L 288.148438 262.636719 C 263.796875 273.996094 243.621094 285.359375 227.816406 296.960938 C 212.011719 308.558594 200.960938 319.683594 194.734375 330.589844 L 190.332031 324.792969 C 205.402344 298.824219 239.253906 276.347656 292.363281 257.078125 L 286.101562 254.070312 C 254.105469 265.898438 228.355469 279.34375 208.878906 294.648438 C 189.398438 309.949219 179.625 322.007812 179.625 330.828125 C 179.625 339.402344 180.539062 345.453125 181.9375 348.441406 C 183.566406 351.230469 185.648438 353.3125 188.199219 354.007812 Z M 108.664062 283.96875 C 110.511719 281.355469 112.058594 278.574219 113.308594 275.625 C 114.222656 272.835938 115.136719 271.445312 115.859375 271.21875 L 111.453125 269.132812 C 108.902344 271.445312 106.578125 275.625 104.257812 281.886719 Z M 88.261719 228.546875 L 92.429688 232.726562 L 105.226562 213.710938 L 101.050781 209.535156 Z M 139.277344 307.390625 L 143.683594 305.304688 C 126.527344 275.394531 117.953125 243.621094 117.953125 209.535156 L 111.460938 209.535156 C 111.421875 227.664062 113.886719 245.441406 118.867188 262.871094 C 123.738281 280.03125 130.464844 294.867188 139.277344 307.390625 Z M 133.015625 252.203125 C 136.265625 247.5625 140.4375 241.066406 145.539062 232.726562 C 148.089844 228.320312 150.171875 225.53125 152.027344 224.378906 L 147.625 220.203125 C 143.910156 222.945312 137.421875 232.257812 128.609375 247.800781 Z M 149.945312 309.484375 C 157.359375 306 165.714844 297.425781 175.449219 283.96875 L 171.28125 279.800781 C 162.003906 292.554688 153.417969 301.832031 145.539062 307.390625 Z M 190.292969 292.554688 L 194.699219 288.148438 C 180.550781 276.320312 170.578125 254.058594 164.78125 222.332031 L 158.289062 222.332031 C 161.535156 239.957031 165.941406 255.03125 171.738281 267.550781 C 177.53125 280.074219 183.566406 288.421875 190.292969 292.597656 Z M 190.292969 266.8125 C 204.433594 254.984375 213.710938 244.316406 217.882812 235.046875 C 224.609375 254.058594 231.804688 266.8125 239.214844 273.300781 L 243.394531 269.132812 C 230.871094 254.289062 223.21875 238.054688 219.972656 220.203125 L 213.710938 220.203125 C 213.710938 226.464844 211.390625 233.191406 206.519531 240.375 C 201.882812 247.5625 194.929688 255.003906 186.117188 262.636719 Z M 254.0625 260.550781 C 261.710938 254.289062 267.28125 245.925781 270.992188 235.046875 L 266.8125 232.726562 C 261.941406 243.394531 256.144531 251.007812 249.882812 256.375 Z M 283.972656 247.800781 L 288.148438 245.707031 L 279.566406 226.691406 L 275.398438 228.519531 Z M 317.792969 232.726562 L 324.054688 228.546875 L 326.375 216.023438 L 320.152344 218.15625 Z M 228.558594 422.171875 L 235.058594 420.089844 C 235.058594 399.21875 239.226562 382.984375 247.855469 371.15625 L 241.363281 366.988281 C 232.78125 377.417969 228.566406 395.746094 228.566406 422.171875 Z M 279.574219 415.683594 L 283.980469 411.503906 C 271.457031 401.304688 262.1875 387.628906 256.390625 371.15625 L 249.894531 377.65625 C 255.925781 388.085938 261.253906 396.441406 266.347656 402.929688 C 271.21875 409.421875 275.625 413.597656 279.566406 415.683594 Z M 283.972656 453.992188 L 290.234375 453.992188 C 290.234375 435.710938 292.0625 418.972656 296.265625 404.367188 C 300.207031 389.742188 306 377.929688 313.632812 369.117188 L 307.171875 362.582031 C 299.75 373.480469 293.953125 386.695312 290.011719 402.464844 C 285.835938 418.003906 283.980469 435.164062 283.980469 453.949219 Z M 332.675781 470.921875 L 337.082031 466.746094 C 329.261719 462.445312 322.148438 457.191406 315.746094 450.976562 C 309.914062 445.671875 304.964844 439.640625 300.898438 432.886719 L 296.496094 437.0625 C 304.613281 450.28125 316.667969 461.644531 332.675781 470.886719 Z M 343.332031 466.746094 L 349.832031 466.746094 C 349.832031 448.464844 351.917969 433.351562 356.09375 422.21875 L 349.832031 422.21875 C 347.734375 425.234375 346.113281 430.570312 344.960938 438.226562 C 343.800781 445.875 343.332031 455.382812 343.332031 466.746094 Z M 373.25 462.566406 L 379.511719 458.398438 C 376.03125 438.453125 370.472656 420.828125 362.355469 405.0625 C 354.464844 389.292969 344.492188 376.769531 332.675781 367.035156 L 326.414062 371.203125 C 338.003906 380.863281 347.976562 393.664062 356.09375 409.421875 C 364.394531 426.285156 370.117188 443.988281 373.25 462.523438 Z M 360.261719 392.308594 L 366.761719 392.308594 C 366.761719 380.015625 371.625 365.179688 381.835938 347.785156 L 375.335938 345.699219 C 365.363281 357.289062 360.261719 372.828125 360.261719 392.320312 Z M 417.777344 394.578125 L 421.945312 390.171875 C 415.074219 385.285156 408.949219 379.601562 403.5625 373.113281 C 398.179688 366.628906 393.71875 359.558594 390.179688 351.90625 L 386.003906 353.992188 C 388.152344 361.792969 391.78125 368.828125 396.898438 375.097656 C 402.972656 382.539062 409.933594 389.03125 417.777344 394.578125 Z M 409.421875 451.84375 L 415.683594 453.9375 C 424.960938 438.171875 431.917969 420.308594 436.554688 400.839844 C 441.195312 381.121094 443.28125 359.785156 443.28125 337.0625 L 443.28125 328.488281 L 434.933594 328.488281 C 434.933594 354.226562 432.613281 377.648438 428.207031 398.746094 C 423.800781 419.84375 417.539062 437.476562 409.421875 451.84375 Z M 458.125 430.746094 L 460.4375 424.257812 C 459.050781 424.019531 456.726562 422.628906 453.71875 420.546875 C 449.078125 417.0625 444.90625 414.285156 441.195312 411.496094 L 437.019531 415.675781 C 439.792969 419.039062 442.960938 421.976562 446.527344 424.484375 C 450.171875 426.980469 454.039062 429.070312 458.125 430.746094 Z M 468.785156 351.90625 L 472.960938 347.730469 C 469.121094 344.628906 465.875 340.996094 463.226562 336.832031 C 459.679688 331.4375 456.585938 325.796875 453.949219 319.902344 L 449.542969 326.394531 C 455.109375 338.222656 461.601562 346.804688 468.785156 351.90625 Z M 462.570312 415.683594 L 466.738281 415.683594 C 473.691406 405.949219 479.03125 391.332031 482.742188 371.625 C 486.214844 351.914062 488.070312 328.257812 488.070312 300.898438 L 481.582031 302.984375 C 481.582031 350.753906 475.320312 388.324219 462.570312 415.683594 Z M 490.121094 394.578125 L 494.296875 392.253906 L 488.035156 379.457031 L 483.59375 383.679688 Z M 509.132812 328.488281 L 513.539062 324.308594 C 510.53125 316.429688 507.980469 310.398438 505.660156 306.21875 C 503.109375 302.050781 500.789062 299.730469 498.476562 298.804688 L 494.296875 302.972656 C 496.382812 304.371094 499.167969 308.3125 502.414062 314.574219 C 505.15625 320.140625 507.285156 324.777344 509.132812 328.488281 Z M 509.132812 328.488281 "/></g><g clip-rule="nonzero" clip-path="url(#f320e70a8c)"><g clip-rule="nonzero" clip-path="url(#d4da949345)"><path style=" stroke:none;fill-rule:nonzero;fill:#ffffff;fill-opacity:1;" d="M 11.308594 14.441406 L 71.308594 14.441406 L 71.308594 74.441406 L 11.308594 74.441406 Z M 11.308594 14.441406 "/></g></g></g></svg>